<svg 
  xmlns:xlink="http://www.w3.org/1999/xlink" 
  version="1.1" 
  x="0px" 
  y="0px" 
  viewBox="0 0 100 125" 
  enable-background="new 0 0 100 100" 
  xml:space="preserve"
>
  <g>
    <path d="M17.4,48l3.2,9.3c0.3,0.7,0.9,1.3,1.7,1.3c0.8,0.1,1.5-0.3,1.9-1l4.4-7.4L36,66.5c0.3,0.7,1,1.2,1.8,1.2c0.1,0,0.2,0,0.3,0   c0.9-0.1,1.6-0.8,1.7-1.7L43,40.7l3.4,6.2c0.3,0.6,1,1,1.8,1h16.7c1.1,0,2-0.9,2-2s-0.9-2-2-2H49.4l-5.8-10.6   c-0.4-0.8-1.3-1.2-2.1-1c-0.9,0.2-1.5,0.9-1.6,1.7l-3.1,24.4l-6.1-13.3c-0.3-0.7-1-1.1-1.7-1.2c-0.7,0-1.4,0.3-1.8,1l-4.1,7   l-2.3-6.6c-0.3-0.8-1-1.4-1.9-1.4H6.5c-1.1,0-2,0.9-2,2s0.9,2,2,2H17.4z"/><path d="M71.8,48h7c1.1,0,2-0.9,2-2s-0.9-2-2-2h-7c-1.1,0-2,0.9-2,2S70.7,48,71.8,48z"/><path d="M93.5,44h-7.3c-1.1,0-2,0.9-2,2s0.9,2,2,2h7.3c1.1,0,2-0.9,2-2S94.6,44,93.5,44z"/>
  </g>
</svg>