<svg width="72" height="72" viewBox="0 0 72 72" fill="none" xmlns="http://www.w3.org/2000/svg">
<g clip-path="url(#clip0)">
<circle cx="25.056" cy="27.0438" r="7.87876" fill="#159CF4"/>
<circle cx="23.4077" cy="38.6726" r="7.04199" fill="white"/>
<circle cx="41.2261" cy="33.5384" r="12.5611" fill="white"/>
<rect x="23.4072" y="38.7151" width="19.1478" height="7.00097" fill="white"/>
<circle cx="28.2034" cy="32.7952" r="2.31525" fill="white"/>
<path fill-rule="evenodd" clip-rule="evenodd" d="M50.9705 27.1829C48.8512 23.9888 45.2225 21.8829 41.102 21.8829C35.0791 21.8829 30.5523 26.4361 29.9464 30.3179C29.8098 31.1926 29.4724 31.7664 28.8936 32.3797C28.4185 32.6907 28.0535 32.7638 27.6237 32.6907C27.3317 32.6411 27.0844 32.5371 26.8087 32.4212C26.2686 32.1942 25.6194 31.9214 24.3123 31.9214C20.648 31.9214 17.6775 34.8918 17.6775 38.5561C17.6775 42.2204 20.648 45.1909 24.3123 45.1909H32.2443C32.2849 46.336 32.4359 47.4531 32.6871 48.5316L24.3127 48.5316C18.8102 48.5316 14.3496 44.071 14.3496 38.5686C14.3496 33.0661 18.8102 28.6055 24.3127 28.6055C25.1265 28.6055 25.9175 28.703 26.6747 28.8871C28.6747 22.9375 34.2973 18.6519 40.9209 18.6519C47.1734 18.6519 52.534 22.4709 54.7973 27.9035C53.5737 27.5267 52.2926 27.2811 50.9705 27.1829Z" fill="url(#paint0_linear)"/>
<circle cx="27.2682" cy="13.7726" r="2.21158" fill="#159BF3"/>
<circle cx="11.7873" cy="27.0421" r="2.21158" fill="#159BF3"/>
<circle cx="16.2111" cy="15.9884" r="2.21158" fill="#159BF3"/>
<path d="M60.8255 44.7717H53.8255V46.7717H58.6255C57.9255 49.7717 55.7255 52.2717 52.8255 53.2717L41.3255 41.7717C42.5255 38.2717 45.9255 35.7717 49.8255 35.7717C52.8255 35.7717 55.5255 37.2717 57.2255 39.5717L58.7255 38.2717C56.7255 35.5717 53.5255 33.7717 49.8255 33.7717C44.6255 33.7717 40.2255 37.4717 39.1255 42.3717L52.3255 55.5717C57.1255 54.3717 60.8255 49.9717 60.8255 44.7717Z" fill="white"/>
<path d="M38.8257 44.8718C38.8257 47.6718 39.9257 50.3718 42.0257 52.4718C44.1257 54.5718 46.9257 55.6718 49.6257 55.6718L38.8257 44.8718Z" fill="white"/>
<path d="M49.8257 30.7717C42.1257 30.7717 35.8257 37.0717 35.8257 44.7717C35.8257 52.4717 42.1257 58.7717 49.8257 58.7717C57.5257 58.7717 63.8257 52.4717 63.8257 44.7717C63.8257 37.0717 57.5257 30.7717 49.8257 30.7717ZM42.0257 52.5717C39.9257 50.4717 38.8257 47.6717 38.8257 44.9717L49.7257 55.7717C46.9257 55.6717 44.1257 54.6717 42.0257 52.5717ZM52.2257 55.4717L39.1257 42.3717C40.2257 37.4717 44.6257 33.7717 49.8257 33.7717C53.5257 33.7717 56.7257 35.5717 58.7257 38.2717L57.2257 39.5717C55.5257 37.2717 52.8257 35.7717 49.8257 35.7717C45.9257 35.7717 42.6257 38.2717 41.3257 41.7717L52.8257 53.2717C55.7257 52.2717 57.9257 49.7717 58.6257 46.7717H53.8257V44.7717H60.8257C60.8257 49.9717 57.1257 54.3717 52.2257 55.4717Z" fill="#663399"/>
</g>
<defs>
<linearGradient id="paint0_linear" x1="54.4577" y1="26.7169" x2="30.8661" y2="26.7169" gradientUnits="userSpaceOnUse">
<stop stop-color="#663399"/>
<stop offset="1" stop-color="#159BF3"/>
</linearGradient>
<clipPath id="clip0">
<rect width="56" height="56" fill="white" transform="translate(8 8)"/>
</clipPath>
</defs>
</svg>
